<svg width="48" height="48" viewBox="0 0 48 48" fill="none" xmlns="http://www.w3.org/2000/svg">
<rect width="48" height="48" rx="18" fill="#0077FF"/>
<path d="M24 27.0004C25.6569 27.0004 27 25.6573 27 24.0004C27 22.3436 25.6569 21.0004 24 21.0004C22.3431 21.0004 21 22.3436 21 24.0004C21 25.6573 22.3431 27.0004 24 27.0004Z" stroke="white" stroke-width="2.5" stroke-miterlimit="10" stroke-linecap="round" stroke-linejoin="round"/>
<path d="M14 24.8804V23.1204C14 22.0804 14.85 21.2204 15.9 21.2204C17.71 21.2204 18.45 19.9404 17.54 18.3704C17.02 17.4704 17.33 16.3004 18.24 15.7804L19.97 14.7904C20.76 14.3204 21.78 14.6004 22.25 15.3904L22.36 15.5804C23.26 17.1504 24.74 17.1504 25.65 15.5804L25.76 15.3904C26.23 14.6004 27.25 14.3204 28.04 14.7904L29.77 15.7804C30.68 16.3004 30.99 17.4704 30.47 18.3704C29.56 19.9404 30.3 21.2204 32.11 21.2204C33.15 21.2204 34.01 22.0704 34.01 23.1204V24.8804C34.01 25.9204 33.16 26.7804 32.11 26.7804C30.3 26.7804 29.56 28.0604 30.47 29.6304C30.99 30.5404 30.68 31.7004 29.77 32.2204L28.04 33.2104C27.25 33.6804 26.23 33.4004 25.76 32.6104L25.65 32.4204C24.75 30.8504 23.27 30.8504 22.36 32.4204L22.25 32.6104C21.78 33.4004 20.76 33.6804 19.97 33.2104L18.24 32.2204C17.33 31.7004 17.02 30.5304 17.54 29.6304C18.45 28.0604 17.71 26.7804 15.9 26.7804C14.85 26.7804 14 25.9204 14 24.8804Z" stroke="white" stroke-width="2.5" stroke-miterlimit="10" stroke-linecap="round" stroke-linejoin="round"/>
</svg>
