<svg width="44" height="45" viewBox="0 0 44 45" fill="none" xmlns="http://www.w3.org/2000/svg">
<path d="M15.3438 27.1184C15.3438 29.6984 17.3238 31.7784 19.7838 31.7784H24.8037C26.9437 31.7784 28.6838 29.9584 28.6838 27.7184C28.6838 25.2784 27.6238 24.4184 26.0438 23.8584L17.9837 21.0584C16.4037 20.4984 15.3438 19.6384 15.3438 17.1984C15.3438 14.9584 17.0837 13.1384 19.2237 13.1384H24.2437C26.7037 13.1384 28.6838 15.2184 28.6838 17.7984M22 10.4587V34.4587M28 42.4587H16C6 42.4587 2 38.4587 2 28.4587V16.4587C2 6.45874 6 2.45874 16 2.45874H28C38 2.45874 42 6.45874 42 16.4587V28.4587C42 38.4587 38 42.4587 28 42.4587Z" stroke="black" stroke-width="3.5" stroke-linecap="round" stroke-linejoin="round"/>
</svg>
