<svg width="24" height="24" viewBox="0 0 24 24" fill="none" xmlns="http://www.w3.org/2000/svg">
<path d="M1.40636 15.9677C1.34416 16.5165 1.7386 17.0117 2.28737 17.074C2.83614 17.1362 3.33144 16.7417 3.39364 16.1929L1.40636 15.9677ZM3.52 6.19946L2.8773 5.43334C2.68087 5.59813 2.55524 5.83207 2.52636 6.08683L3.52 6.19946ZM6.4027 5.08643C6.82582 4.73148 6.88107 4.10073 6.52612 3.67761C6.17116 3.2545 5.54042 3.19924 5.1173 3.55419L6.4027 5.08643ZM20.6064 16.1929C20.6686 16.7417 21.1639 17.1362 21.7126 17.074C22.2614 17.0117 22.6558 16.5165 22.5936 15.9677L20.6064 16.1929ZM20.48 6.19946L21.4736 6.08683C21.4448 5.83207 21.3191 5.59813 21.1227 5.43334L20.48 6.19946ZM18.8827 3.55419C18.4596 3.19924 17.8288 3.2545 17.4739 3.67761C17.1189 4.10073 17.1742 4.73148 17.5973 5.08643L18.8827 3.55419ZM8.12 16.3203C8.12 17.6237 7.06339 18.6803 5.76 18.6803V20.6803C8.16796 20.6803 10.12 18.7283 10.12 16.3203H8.12ZM5.76 18.6803C4.45661 18.6803 3.4 17.6237 3.4 16.3203H1.4C1.4 18.7283 3.35204 20.6803 5.76 20.6803V18.6803ZM3.4 16.3203C3.4 15.0169 4.45661 13.9603 5.76 13.9603V11.9603C3.35204 11.9603 1.4 13.9124 1.4 16.3203H3.4ZM5.76 13.9603C7.06339 13.9603 8.12 15.0169 8.12 16.3203H10.12C10.12 13.9124 8.16796 11.9603 5.76 11.9603V13.9603ZM9.95514 16.101C10.3647 15.393 11.1277 14.9203 12 14.9203V12.9203C10.3849 12.9203 8.97628 13.799 8.22393 15.0996L9.95514 16.101ZM12 14.9203C12.8723 14.9203 13.6353 15.393 14.0449 16.101L15.7761 15.0996C15.0238 13.799 13.6151 12.9203 12 12.9203V14.9203ZM20.6 16.3203C20.6 17.6237 19.5434 18.6803 18.24 18.6803V20.6803C20.648 20.6803 22.6 18.7283 22.6 16.3203H20.6ZM18.24 18.6803C16.9366 18.6803 15.88 17.6237 15.88 16.3203H13.88C13.88 18.7283 15.832 20.6803 18.24 20.6803V18.6803ZM15.88 16.3203C15.88 15.0169 16.9366 13.9603 18.24 13.9603V11.9603C15.832 11.9603 13.88 13.9124 13.88 16.3203H15.88ZM18.24 13.9603C19.5434 13.9603 20.6 15.0169 20.6 16.3203H22.6C22.6 13.9124 20.648 11.9603 18.24 11.9603V13.9603ZM3.39364 16.1929L4.51364 6.31209L2.52636 6.08683L1.40636 15.9677L3.39364 16.1929ZM4.1627 6.96558L6.4027 5.08643L5.1173 3.55419L2.8773 5.43334L4.1627 6.96558ZM22.5936 15.9677L21.4736 6.08683L19.4864 6.31209L20.6064 16.1929L22.5936 15.9677ZM21.1227 5.43334L18.8827 3.55419L17.5973 5.08643L19.8373 6.96558L21.1227 5.43334Z" fill="black"/>
</svg>
