<svg width="36" height="36" viewBox="0 0 36 36" fill="none" xmlns="http://www.w3.org/2000/svg">
<rect width="36" height="36" rx="12" fill="#EBEBEB"/>
<path d="M18 27C22.9706 27 27 22.9706 27 18C27 13.0294 22.9706 9 18 9M18 27C13.0294 27 9 22.9706 9 18C9 13.0294 13.0294 9 18 9M18 27C15.8254 27 14.0625 22.9706 14.0625 18C14.0625 13.0294 15.8254 9 18 9M18 27C20.1746 27 21.9375 22.9706 21.9375 18C21.9375 13.0294 20.1746 9 18 9M10.6875 22.3744C12.3363 21.4302 15.0757 20.8125 18.1764 20.8125C21.4124 20.8125 24.255 21.4854 25.875 22.5M10.6875 13.6256C12.3363 14.5698 15.0757 15.1875 18.1764 15.1875C21.4124 15.1875 24.255 14.5146 25.875 13.5" stroke="black" stroke-width="2"/>
</svg>
