<svg width="22" height="17" viewBox="0 0 22 17" fill="none" xmlns="http://www.w3.org/2000/svg">
<rect y="0.378906" width="22" height="16" rx="6" fill="black"/>
<path d="M4.728 11.3789V5.77891H5.624V10.5549H8.064V11.3789H4.728ZM9.07956 11.3789V5.77891H9.97556V11.3789H9.07956ZM16.2549 11.6909L15.6709 11.0109C15.4363 11.1629 15.1789 11.2829 14.8989 11.3709C14.6189 11.4562 14.3243 11.4989 14.0149 11.4989C13.6043 11.4989 13.2216 11.4256 12.8669 11.2789C12.5123 11.1322 12.2016 10.9282 11.9349 10.6669C11.6709 10.4029 11.4643 10.0936 11.3149 9.73891C11.1656 9.38157 11.0909 8.99491 11.0909 8.57891C11.0909 8.16291 11.1643 7.77757 11.3109 7.42291C11.4603 7.06824 11.6683 6.75891 11.9349 6.49491C12.2016 6.23091 12.5136 6.02557 12.8709 5.87891C13.2309 5.73224 13.6203 5.65891 14.0389 5.65891C14.4523 5.65891 14.8363 5.73357 15.1909 5.88291C15.5483 6.02957 15.8603 6.23491 16.1269 6.49891C16.3963 6.76291 16.6056 7.07091 16.7549 7.42291C16.9069 7.77491 16.9829 8.15624 16.9829 8.56691C16.9829 8.95891 16.9136 9.32691 16.7749 9.67091C16.6389 10.0122 16.4509 10.3109 16.2109 10.5669L16.7829 11.2229L16.2549 11.6909ZM14.0389 10.7149C14.2443 10.7149 14.4403 10.6869 14.6269 10.6309C14.8136 10.5749 14.9856 10.4949 15.1429 10.3909L14.2949 9.41091L14.7949 8.97091L15.6469 9.94291C15.7883 9.76957 15.9003 9.56824 15.9829 9.33891C16.0656 9.10691 16.1069 8.85357 16.1069 8.57891C16.1069 8.15224 16.0149 7.78157 15.8309 7.46691C15.6469 7.14957 15.3976 6.90424 15.0829 6.73091C14.7709 6.55491 14.4229 6.46691 14.0389 6.46691C13.7509 6.46691 13.4816 6.51757 13.2309 6.61891C12.9829 6.71757 12.7656 6.85891 12.5789 7.04291C12.3949 7.22691 12.2509 7.44957 12.1469 7.71091C12.0429 7.96957 11.9909 8.25891 11.9909 8.57891C11.9909 9.00557 12.0816 9.37891 12.2629 9.69891C12.4443 10.0189 12.6896 10.2682 12.9989 10.4469C13.3083 10.6256 13.6549 10.7149 14.0389 10.7149Z" fill="white"/>
</svg>
