<svg width="32" height="17" viewBox="0 0 32 17" fill="none" xmlns="http://www.w3.org/2000/svg">
<rect y="0.378906" width="32" height="16" rx="6" fill="black"/>
<path d="M4.728 11.3789V5.77891H5.596L7.88 9.49491L7.532 9.49891L9.732 5.77891H10.584V11.3789H9.708L9.72 6.97091L9.892 7.03091L7.988 10.1709H7.332L5.392 7.03091L5.536 6.97091L5.548 11.3789H4.728ZM14.5925 11.4989C14.0112 11.4989 13.5032 11.3789 13.0685 11.1389C12.6338 10.8989 12.2952 10.5602 12.0525 10.1229C11.8125 9.68291 11.6925 9.16957 11.6925 8.58291C11.6925 8.15624 11.7632 7.76557 11.9045 7.41091C12.0485 7.05357 12.2498 6.74424 12.5085 6.48291C12.7698 6.22157 13.0778 6.01891 13.4325 5.87491C13.7872 5.73091 14.1765 5.65891 14.6005 5.65891C15.0272 5.65891 15.3952 5.71224 15.7045 5.81891C16.0165 5.92557 16.2885 6.07757 16.5205 6.27491L16.0565 7.00691C15.8805 6.84424 15.6752 6.72291 15.4405 6.64291C15.2058 6.56291 14.9472 6.52291 14.6645 6.52291C14.3525 6.52291 14.0712 6.57091 13.8205 6.66691C13.5698 6.76291 13.3552 6.90024 13.1765 7.07891C13.0005 7.25491 12.8645 7.46957 12.7685 7.72291C12.6752 7.97357 12.6285 8.25757 12.6285 8.57491C12.6285 9.00691 12.7125 9.37624 12.8805 9.68291C13.0512 9.98957 13.2912 10.2242 13.6005 10.3869C13.9125 10.5469 14.2805 10.6269 14.7045 10.6269C14.9872 10.6269 15.2592 10.5856 15.5205 10.5029C15.7845 10.4176 16.0312 10.2802 16.2605 10.0909L16.6765 10.8469C16.4072 11.0576 16.0992 11.2189 15.7525 11.3309C15.4085 11.4429 15.0218 11.4989 14.5925 11.4989ZM16.9746 11.3789L19.1506 5.77891H20.1226L22.3546 11.3789H21.3426L20.8266 10.0429H18.4546L17.9586 11.3789H16.9746ZM18.6866 9.27091H20.5866L19.6186 6.83091L18.6866 9.27091ZM23.1655 11.3789V5.77891H25.1935C25.5908 5.77891 25.9415 5.84824 26.2455 5.98691C26.5522 6.12291 26.7922 6.32024 26.9655 6.57891C27.1388 6.83491 27.2255 7.14291 27.2255 7.50291C27.2255 7.87357 27.1455 8.18691 26.9855 8.44291C26.8255 8.69624 26.5922 8.88957 26.2855 9.02291C25.9815 9.15357 25.6108 9.21891 25.1735 9.21891H24.0615V11.3789H23.1655ZM24.0615 8.45091H25.1855C25.5482 8.45091 25.8295 8.37491 26.0295 8.22291C26.2295 8.06824 26.3295 7.83491 26.3295 7.52291C26.3295 7.21357 26.2268 6.97624 26.0215 6.81091C25.8162 6.64557 25.5402 6.56291 25.1935 6.56291H24.0615V8.45091Z" fill="white"/>
</svg>
