<svg width="25" height="17" viewBox="0 0 25 17" fill="none" xmlns="http://www.w3.org/2000/svg">
<rect y="0.378906" width="25" height="16" rx="6" fill="black"/>
<path d="M6.552 11.4989C6.16533 11.4989 5.78667 11.4442 5.416 11.3349C5.048 11.2229 4.73733 11.0629 4.484 10.8549L4.924 10.1709C5.05733 10.2856 5.212 10.3842 5.388 10.4669C5.56667 10.5496 5.756 10.6136 5.956 10.6589C6.156 10.7016 6.356 10.7229 6.556 10.7229C6.92133 10.7229 7.216 10.6536 7.44 10.5149C7.66667 10.3762 7.78 10.1736 7.78 9.90691C7.78 9.70691 7.70267 9.53757 7.548 9.39891C7.396 9.26024 7.11333 9.13224 6.7 9.01491L6.124 8.84691C5.596 8.69491 5.21067 8.49357 4.968 8.24291C4.728 7.99224 4.608 7.68024 4.608 7.30691C4.608 7.05891 4.65733 6.83491 4.756 6.63491C4.85733 6.43491 4.99867 6.26157 5.18 6.11491C5.364 5.96824 5.58 5.85624 5.828 5.77891C6.076 5.70157 6.348 5.66291 6.644 5.66291C7.02 5.66291 7.36933 5.71757 7.692 5.82691C8.01467 5.93624 8.28133 6.08291 8.492 6.26691L8.036 6.93091C7.92133 6.82691 7.78667 6.73757 7.632 6.66291C7.48 6.58824 7.316 6.53091 7.14 6.49091C6.964 6.45091 6.78533 6.43091 6.604 6.43091C6.38 6.43091 6.18133 6.46424 6.008 6.53091C5.83733 6.59491 5.704 6.68824 5.608 6.81091C5.512 6.93357 5.464 7.08291 5.464 7.25891C5.464 7.38691 5.496 7.49891 5.56 7.59491C5.624 7.69091 5.73333 7.77891 5.888 7.85891C6.04533 7.93624 6.26133 8.01491 6.536 8.09491L7.144 8.27491C7.66133 8.42691 8.04 8.62557 8.28 8.87091C8.52 9.11357 8.64 9.42957 8.64 9.81891C8.64 10.1522 8.55733 10.4456 8.392 10.6989C8.22933 10.9496 7.992 11.1456 7.68 11.2869C7.368 11.4282 6.992 11.4989 6.552 11.4989ZM11.9794 11.4989C11.4808 11.4989 11.0634 11.3976 10.7274 11.1949C10.3941 10.9922 10.1421 10.7176 9.97144 10.3709C9.80344 10.0216 9.71944 9.62957 9.71944 9.19491V5.77891H10.6154V9.18691C10.6154 9.68024 10.7381 10.0482 10.9834 10.2909C11.2288 10.5309 11.5608 10.6509 11.9794 10.6509C12.3981 10.6509 12.7301 10.5309 12.9754 10.2909C13.2208 10.0482 13.3434 9.68024 13.3434 9.18691V5.77891H14.2434V9.19491C14.2434 9.62691 14.1581 10.0176 13.9874 10.3669C13.8194 10.7136 13.5674 10.9896 13.2314 11.1949C12.8981 11.3976 12.4808 11.4989 11.9794 11.4989ZM15.6655 11.3789V5.77891H17.6935C18.0908 5.77891 18.4415 5.84824 18.7455 5.98691C19.0522 6.12291 19.2922 6.32024 19.4655 6.57891C19.6388 6.83491 19.7255 7.14291 19.7255 7.50291C19.7255 7.87357 19.6455 8.18691 19.4855 8.44291C19.3255 8.69624 19.0922 8.88957 18.7855 9.02291C18.4815 9.15357 18.1108 9.21891 17.6735 9.21891H16.5615V11.3789H15.6655ZM16.5615 8.45091H17.6855C18.0482 8.45091 18.3295 8.37491 18.5295 8.22291C18.7295 8.06824 18.8295 7.83491 18.8295 7.52291C18.8295 7.21357 18.7268 6.97624 18.5215 6.81091C18.3162 6.64557 18.0402 6.56291 17.6935 6.56291H16.5615V8.45091Z" fill="white"/>
</svg>
