<svg width="36" height="36" viewBox="0 0 36 36" fill="none" xmlns="http://www.w3.org/2000/svg">
<rect width="36" height="36" rx="12" fill="#EBEBEB"/>
<path d="M29 9.00029C28.0424 9.67577 26.9821 10.1924 25.86 10.5303C25.2577 9.8378 24.4573 9.34698 23.567 9.12422C22.6767 8.90145 21.7395 8.95749 20.8821 9.28474C20.0247 9.612 19.2884 10.1947 18.773 10.954C18.2575 11.7133 17.9877 12.6126 18 13.5303V14.5303C16.2426 14.5759 14.5013 14.1861 12.931 13.3957C11.3607 12.6054 10.0103 11.4389 9 10.0003C9 10.0003 5 19.0003 14 23.0003C11.9405 24.3983 9.48716 25.0992 7 25.0003C16 30.0003 27 25.0003 27 13.5003C26.9991 13.2217 26.9723 12.9439 26.92 12.6703C27.9406 11.6638 28.6608 10.393 29 9.00029Z" stroke="#1E1E1E" stroke-width="2" stroke-linecap="round" stroke-linejoin="round"/>
</svg>
